<?xml version="1.0" standalone="no"?>
<!DOCTYPE svg PUBLIC "-//W3C//DTD SVG 20010904//EN"
 "http://www.w3.org/TR/2001/REC-SVG-20010904/DTD/svg10.dtd">
<svg version="1.0" xmlns="http://www.w3.org/2000/svg"
 width="173.000000pt" height="173.000000pt" viewBox="0 0 173.000000 173.000000"
 preserveAspectRatio="xMidYMid meet">
<metadata>
Created by potrace 1.11, written by Peter Selinger 2001-2013
</metadata>
<g transform="translate(0.000000,173.000000) scale(0.100000,-0.100000)"
fill="#000000" stroke="none">
<path d="M1 1348 c1 -363 2 -379 15 -304 52 286 259 537 538 652 l81 34 -317
0 -318 0 1 -382z"/>
<path d="M1206 1696 c224 -92 398 -266 490 -490 l34 -81 0 303 0 302 -302 0
-303 0 81 -34z"/>
<path d="M976 1579 c-8 -12 -29 -57 -47 -100 -17 -44 -35 -79 -39 -79 -11 0
-30 48 -30 78 0 15 -4 33 -9 41 -16 25 -37 -4 -50 -70 -13 -65 -76 -196 -103
-212 -12 -8 -27 -3 -66 23 -61 43 -59 61 12 93 60 28 112 70 121 98 13 41 -58
119 -108 119 -35 0 -52 -25 -77 -110 -13 -41 -26 -79 -30 -83 -8 -10 -50 9
-62 27 -4 6 -8 25 -8 42 0 16 -6 38 -13 48 -22 30 -41 -4 -34 -60 5 -52 34
-88 81 -104 l31 -10 -14 -105 c-11 -80 -11 -109 -3 -117 17 -17 22 -7 34 68 5
38 12 71 14 73 2 2 22 -11 46 -28 53 -39 79 -39 113 1 28 33 33 44 69 141 l22
57 27 -28 28 -29 -25 -79 c-30 -93 -31 -100 -11 -108 10 -3 30 11 56 39 41 45
118 83 139 70 17 -10 -31 -57 -116 -115 -47 -32 -101 -58 -165 -78 -52 -16
-113 -39 -136 -50 -47 -24 -99 -73 -108 -102 -15 -48 -35 5 -35 96 0 48 -20
73 -40 49 -27 -33 13 -256 49 -270 22 -8 41 22 41 64 0 58 62 107 200 158 133
50 226 73 290 72 l45 0 -33 -28 c-48 -41 -214 -137 -231 -133 -8 2 -22 -7 -32
-19 -9 -13 -70 -53 -135 -89 -88 -49 -119 -71 -119 -86 0 -34 62 -28 228 22
24 8 22 -19 -4 -42 -12 -10 -42 -46 -67 -79 -86 -112 -181 -212 -227 -236 -54
-29 -57 -39 -12 -39 56 0 149 81 268 235 53 68 54 69 57 40 2 -17 2 -91 0
-165 -3 -97 -9 -146 -21 -174 -19 -43 -17 -51 10 -42 42 13 52 54 59 236 l7
173 41 -45 c137 -149 167 -178 219 -213 40 -26 71 -39 105 -42 42 -5 53 -1
102 32 111 75 190 146 190 171 0 23 -7 19 -92 -46 -94 -71 -163 -110 -196
-110 -9 0 -35 12 -57 27 l-40 28 60 7 c170 22 355 120 355 188 0 44 -71 80
-156 80 l-57 0 47 44 c39 36 47 49 44 72 -4 40 -72 74 -145 74 -67 0 -146 -17
-169 -36 -18 -14 -17 -15 13 -10 l31 5 -23 -42 c-48 -85 -67 -210 -45 -302 5
-22 7 -41 5 -43 -1 -2 -43 38 -91 88 -49 51 -101 98 -116 106 -22 12 -28 21
-28 49 0 32 3 35 55 54 118 44 182 87 162 108 -3 3 -49 -13 -102 -36 -52 -22
-100 -41 -106 -41 -6 0 -9 12 -7 27 2 22 19 36 98 81 183 105 202 120 198 150
-4 36 -41 54 -98 47 -38 -4 -42 -3 -26 8 77 50 101 74 104 104 7 75 -92 84
-170 15 -21 -17 -22 -11 -8 39 9 30 16 38 51 48 45 14 126 82 140 119 11 28
-9 71 -47 101 -34 27 -59 27 -78 0z m81 -55 c12 -19 11 -25 -13 -53 -23 -27
-72 -61 -88 -61 -6 0 27 88 45 122 13 24 37 20 56 -8z m-360 -16 c13 -12 23
-27 23 -34 0 -13 -47 -52 -89 -74 -23 -12 -23 -11 -17 16 11 42 44 114 52 114
4 0 18 -10 31 -22z m602 -599 c17 -6 36 -20 42 -31 21 -39 -46 -100 -152 -139
-33 -12 -59 -26 -59 -30 0 -12 7 -11 65 7 64 20 180 22 223 5 36 -15 50 -48
33 -79 -14 -27 -92 -77 -156 -101 -54 -20 -197 -53 -203 -46 -23 22 -28 187
-8 260 13 48 48 127 68 153 13 15 104 16 147 1z m-542 -82 c-5 -14 -123 -54
-132 -45 -3 3 25 21 62 41 64 33 82 34 70 4z"/>
<path d="M1 398 l-1 -398 398 1 c375 1 393 2 318 15 -345 62 -638 355 -700
700 -13 75 -14 57 -15 -318z"/>
<path d="M1697 556 c-104 -271 -368 -488 -653 -540 -75 -13 -59 -14 304 -15
l382 -1 0 315 c0 173 -1 315 -2 315 -2 0 -16 -33 -31 -74z"/>
</g>
</svg>
